<svg xmlns="http://www.w3.org/2000/svg" viewBox="0 0 216 216"><path d="M8,0h199.9c4.4,0,8,3.6,8,8v199.9c0,4.4-3.6,8-8,8H8c-4.4,0-8-3.6-8-8V8C0,3.6,3.6,0,8,0z" fill="#303f9f"/><path d="M112.1 54.6c6.8 3.1 12.1 7.5 15.8 13.2s5.5 12.4 5.5 20.2c0 7.7-1.9 14.4-5.5 20.2-3.7 5.8-9 10.2-15.8 13.2-6.9 3.1-14.9 4.6-24.2 4.6H66.7v29H42.4V50h45.5c9.3 0 17.3 1.6 24.2 4.6zm-8.9 46.9c3.8-3.1 5.7-7.6 5.7-13.4 0-5.9-1.9-10.4-5.7-13.6-3.8-3.1-9.4-4.7-16.7-4.7H66.7v36.5h19.8c7.3-.1 12.9-1.6 16.7-4.8zm21.1 79.3l6.3-17c2.7 1.9 6 2.9 9.9 2.9 3 0 5.3-1 7-2.9 1.7-2 2.5-4.9 2.5-8.8V74.3h23.4v80.5c0 9.4-2.7 16.8-8 22.3-5.4 5.4-12.8 8.2-22.4 8.2-8.1 0-14.4-1.5-18.7-4.5zm27-121.5c-2.7-2.5-4-5.6-4-9.3s1.3-6.8 4-9.3 6.2-3.8 10.5-3.8 7.8 1.2 10.5 3.6 4 5.4 4 9c0 3.9-1.3 7.1-4 9.7-2.7 2.5-6.2 3.8-10.5 3.8s-7.8-1.2-10.5-3.7z" fill="#fff"/></svg>