<?xml version="1.0" encoding="utf-8"?>
<!-- Generator: Adobe Illustrator 26.4.1, SVG Export Plug-In . SVG Version: 6.00 Build 0)  -->
<svg version="1.1" id="Layer_1" xmlns="http://www.w3.org/2000/svg" xmlns:xlink="http://www.w3.org/1999/xlink" x="0px" y="0px"
	 viewBox="0 0 32 32" style="enable-background:new 0 0 32 32;" xml:space="preserve">
<style type="text/css">
	.st0{fill:#2DD4BF;}
</style>
<g>
	<path class="st0" d="M16,17.9c-2.3,2.3-4.7,4.8-8.4,4.8c-3.8,0-6.5-2.8-6.5-6.7C1.1,12.4,4,9.3,8,9.3c3.3,0,5.8,2.7,8,4.8
		c2.3-2.3,4.7-4.8,8.4-4.8c3.8,0,6.5,2.8,6.5,6.7c0,3.6-2.9,6.7-6.9,6.7C20.7,22.7,18.2,20,16,17.9z M14.2,16c-1.8-1.6-3.6-4-6.2-4
		c-2.3,0-4,1.9-4,4c0,2.3,1.6,4,3.8,4C10.4,20,12.5,17.8,14.2,16z M28,16c0-2.3-1.6-4-3.8-4c-2.6,0-4.7,2.2-6.4,4
		c1.8,1.6,3.6,4,6.2,4C26.3,20,28,18.1,28,16z"/>
</g>
</svg>
