<?xml version="1.0" encoding="utf-8"?>
<!-- Generator: Adobe Illustrator 26.4.1, SVG Export Plug-In . SVG Version: 6.00 Build 0)  -->
<svg version="1.1" id="Layer_1" xmlns="http://www.w3.org/2000/svg" xmlns:xlink="http://www.w3.org/1999/xlink" x="0px" y="0px"
	 viewBox="0 0 100 90" style="enable-background:new 0 0 100 90;" xml:space="preserve">
<style type="text/css">
	.st0{fill:#18181B;}
</style>
<g id="Layer_2_00000096777982043570001650000002935843695990012582_">
</g>
<g id="Layer_1_00000166644138750757946830000004350037833449758096_">
	<g>
		<path class="st0" d="M5,85.3l2.1,2.1V90H0v-9.6l2.1,2.1v5.8c0,0.6-0.1,1.1-0.4,1.6h0.4c0.2-0.5,0.3-1.1,0.3-1.6v-5.4L4.5,85v4.9H5
			V85.3z"/>
		<path class="st0" d="M11,87.7c0.6,0.6,1,1.4,1.1,2.3H7.5v-2.1l1,1c0.3,0.3,0.5,0.7,0.7,1h0.4c-0.2-0.5-0.5-0.9-0.9-1.3L0,79.9
			v-3.7c0.2,0.5,0.5,0.9,0.9,1.2L11,87.7z"/>
		<path class="st0" d="M1,31l-1,1V20.4l2.1,2.1v5.8C2.1,29.3,1.7,30.2,1,31z"/>
		<path class="st0" d="M1,61l-1,1V50.4l2.1,2.1v5.8C2.1,59.3,1.7,60.2,1,61z"/>
		<path class="st0" d="M3.5,32.2L0,35.8v-3.3l1.3-1.3c0.8-0.8,1.2-1.8,1.2-2.9v-5.4L4.6,25v4.5C4.6,30.5,4.2,31.4,3.5,32.2z"/>
		<path class="st0" d="M3.5,62.2L0,65.8v-3.3l1.3-1.3c0.8-0.8,1.2-1.8,1.2-2.9v-5.4L4.6,55v4.5C4.6,60.5,4.2,61.4,3.5,62.2z"/>
		<path class="st0" d="M6,33.5l-6,6v-3.2l3.8-3.8C4.6,31.8,5,30.7,5,29.6v-4.2l2.1,2.1v3.3C7.1,31.8,6.7,32.7,6,33.5z"/>
		<path class="st0" d="M6,63.5l-6,6v-3.2l3.8-3.8C4.6,61.8,5,60.7,5,59.6v-4.2l2.1,2.1v3.3C7.1,61.8,6.7,62.7,6,63.5z"/>
		<path class="st0" d="M8.6,43.6c-0.7-0.7-1.1-1.7-1.1-2.7V28l1,1c0.7,0.7,1.1,1.7,1.1,2.7v12.9L8.6,43.6z"/>
		<path class="st0" d="M8.5,58.8c0.7,0.7,1.1,1.7,1.1,2.7v13l-1-1c-0.7-0.7-1.1-1.7-1.1-2.7v-13L8.5,58.8z"/>
		<path class="st0" d="M8.7,28.7L0,19.9v-3.6c0.2,0.5,0.5,0.9,0.9,1.2L11,27.7c0.7,0.7,1.1,1.7,1.1,2.7v7l-1.3,1.3
			c-0.4,0.4-0.6,0.8-0.9,1.2v-8.3C9.9,30.5,9.5,29.5,8.7,28.7z"/>
		<path class="st0" d="M8.7,58.7L0,49.9v-3.7c0.2,0.5,0.5,0.9,0.9,1.2L11,57.7c0.7,0.7,1.1,1.7,1.1,2.7v7l-1.3,1.3
			c-0.4,0.4-0.6,0.8-0.9,1.2v-8.3C9.9,60.5,9.5,59.5,8.7,58.7z"/>
		<path class="st0" d="M1.1,17.3C0.4,16.6,0,15.6,0,14.6v-4.5L2.1,8v5.4c0,1.1,0.4,2.1,1.2,2.9l10.2,10.2c0.7,0.7,1.1,1.7,1.1,2.7
			V35l-2.1,2.1v-6.7c0-1.1-0.4-2.2-1.2-2.9L1.1,17.3z"/>
		<path class="st0" d="M1.1,47.3C0.4,46.6,0,45.6,0,44.6v-4.5L2.1,38v5.4c0,1.1,0.4,2.1,1.2,2.9l10.2,10.2c0.7,0.7,1.1,1.7,1.1,2.7
			V65l-2.1,2.1v-6.7c0-1.1-0.4-2.2-1.2-2.9L1.1,47.3z"/>
		<path class="st0" d="M13.5,86.5c0.7,0.7,1.1,1.7,1.1,2.7V90h-2.1c-0.1-1-0.5-1.8-1.2-2.5L1.1,77.3C0.4,76.6,0,75.6,0,74.6v-4.5
			L2.1,68v5.4c0,1.1,0.4,2.1,1.2,2.9L13.5,86.5z"/>
		<path class="st0" d="M15,34.6v-5.4c0-1.1-0.4-2.1-1.2-2.9L3.6,16c-0.7-0.7-1.1-1.7-1.1-2.7V7.6l2.1-2.1v6.7c0,1.1,0.4,2.1,1.2,2.9
			L16,25.2c0.7,0.7,1.1,1.7,1.1,2.7v4.5L15,34.6z"/>
		<path class="st0" d="M15,64.6v-5.4c0-1.1-0.4-2.1-1.2-2.9L3.6,46c-0.7-0.7-1.1-1.7-1.1-2.7v-5.7l2.1-2.1v6.7
			c0,1.1,0.4,2.1,1.2,2.9L16,55.2c0.7,0.7,1.1,1.7,1.1,2.7v4.5L15,64.6z"/>
		<path class="st0" d="M16,85.2c0.7,0.7,1.1,1.7,1.1,2.7V90H15v-0.9c0-1.1-0.4-2.1-1.2-2.9L3.6,76c-0.7-0.7-1.1-1.7-1.1-2.7v-5.8
			l2.1-2.1v6.7c0,1.1,0.4,2.1,1.2,2.9L16,85.2z"/>
		<path class="st0" d="M17.5,2V0h-0.4v2.4L15,4.6V0h-0.4v4.9L12.5,7V0h-0.4v7.4l-1.3,1.3C10.5,9.1,10.2,9.5,10,10V1.6
			C10,1.1,9.9,0.5,9.7,0H9.3c0.2,0.5,0.4,1.1,0.4,1.6v12.9l-1-1c-0.7-0.7-1.1-1.7-1.1-2.7V0H7.1v0.9c0,1-0.4,1.9-1.1,2.7l-6,6V6.3
			l3.8-3.8C4.5,1.8,4.9,1,5,0H4.6C4.5,0.9,4.2,1.7,3.5,2.3L0,5.8V2.5l1.3-1.3C1.7,0.9,2,0.5,2.2,0H1.8C1.6,0.4,1.3,0.7,1,1L0,2v-2.1
			h19.6L17.5,2z"/>
		<path class="st0" d="M7.1,2.5v8.3c0,1.1,0.4,2.1,1.2,2.9L18.5,24c0.7,0.7,1.1,1.7,1.1,2.7V30l-2.1,2.1v-4.2c0-1.1-0.4-2.1-1.2-2.9
			L6.1,14.8C5.4,14.1,5,13.1,5,12.1v-7l1.3-1.3C6.7,3.4,6.9,3,7.1,2.5z"/>
		<path class="st0" d="M7.2,32.6v8.3c0,1.1,0.4,2.1,1.2,2.9L18.5,54c0.7,0.7,1.1,1.7,1.1,2.7v3.2L17.5,62v-4.2
			c0-1.1-0.4-2.1-1.2-2.9L6.1,44.8C5.4,44.1,5,43.1,5,42.1v-7l1.3-1.3C6.7,33.4,6.9,33,7.2,32.6z"/>
		<path class="st0" d="M18.5,84c0.7,0.7,1.1,1.7,1.1,2.7V90h-2.1v-2.1c0-1.1-0.4-2.1-1.2-2.9L6.1,74.8C5.4,74.1,5,73.1,5,72.1v-7
			l1.3-1.3c0.4-0.4,0.6-0.8,0.9-1.2v8.3c0,1.1,0.4,2.1,1.2,2.9L18.5,84z"/>
		<path class="st0" d="M22.1,25.8c0,1-0.4,1.9-1.1,2.7l-1,1V16.6c0-1,0.4-1.9,1.1-2.7l1-1V25.8z"/>
		<path class="st0" d="M20,46.6c0-1,0.4-1.9,1.1-2.7l1-1v12.9c0,1-0.4,1.9-1.1,2.7l-1,1V46.6z"/>
		<path class="st0" d="M21,88.5l-1,1V76.6c0-1,0.4-1.9,1.1-2.7l1-1v2.9c0,0.2,0.1,0.3,0,0.4v9.6C22.1,86.8,21.7,87.7,21,88.5z"/>
		<path class="st0" d="M11.1,38.9l10.2-10.2c0.8-0.8,1.2-1.8,1.2-2.9v-8.3c0.2,0.5,0.5,0.9,0.9,1.2l1.3,1.3v7c0,1-0.4,1.9-1.1,2.7
			L13.4,40c-0.8,0.8-1.2,1.8-1.2,2.9v4.2L10,44.9v-3.3C10,40.6,10.4,39.7,11.1,38.9z"/>
		<path class="st0" d="M11.1,68.9l10.2-10.2c0.8-0.8,1.2-1.8,1.2-2.9v-8.3c0.2,0.5,0.5,0.9,0.9,1.2l1.3,1.3v7c0,1-0.4,1.9-1.1,2.7
			L13.4,70c-0.8,0.8-1.2,1.8-1.2,2.9v4.2h-0.1L10,74.9v-3.3C10,70.6,10.4,69.7,11.1,68.9z"/>
		<path class="st0" d="M24.7,87.1c0,1-0.4,1.9-1.1,2.7L23.3,90h-3.2l1.2-1.2c0.8-0.8,1.2-1.8,1.2-2.9v-8.3c0.2,0.5,0.5,0.9,0.9,1.2
			l1.3,1.3C24.7,80.1,24.7,87.1,24.7,87.1z"/>
		<path class="st0" d="M15.9,41.2c-0.8,0.8-1.3,1.8-1.3,2.9v5.4l-2.1-2.1v-4.5c0-1,0.4-1.9,1.1-2.7L23.8,30c0.8-0.8,1.2-1.8,1.2-2.9
			v-6.7l2.1,2.1v5.8c0,1-0.4,1.9-1.1,2.7L15.9,41.2z"/>
		<path class="st0" d="M14.6,79.6l-2.1-2.1V73c0-1,0.4-1.9,1.1-2.7L23.8,60c0.8-0.8,1.2-1.8,1.2-2.9v-6.7l2.1,2.1v5.8
			c0,1-0.4,1.9-1.1,2.7L15.9,71.2c-0.8,0.8-1.2,1.8-1.2,2.9L14.6,79.6L14.6,79.6z"/>
		<path class="st0" d="M17.2,52.1L15,49.9v-5.8c0-1,0.4-1.9,1.1-2.7l10.2-10.2c0.8-0.8,1.2-1.8,1.2-2.9v-5.4l2.1,2.1v4.5
			c0,1-0.4,1.9-1.1,2.7L18.4,42.5c-0.8,0.8-1.2,1.8-1.2,2.9C17.2,45.4,17.2,52.1,17.2,52.1z"/>
		<path class="st0" d="M17.1,82.1L15,79.9v-5.8c0-1,0.4-1.9,1.1-2.7l10.2-10.2c0.8-0.8,1.2-1.8,1.2-2.9v-5.4l2.1,2.1v4.5
			c0,1-0.4,1.9-1.1,2.7L18.4,72.5c-0.8,0.8-1.2,1.8-1.2,2.9L17.1,82.1L17.1,82.1z"/>
		<path class="st0" d="M31,33.6L20.9,43.7c-0.8,0.8-1.2,1.8-1.2,2.9V55c-0.2-0.5-0.5-0.9-0.9-1.2l-1.3-1.3v-7c0-1,0.4-1.9,1.1-2.7
			l10.2-10.2c0.8-0.8,1.2-1.8,1.2-2.9v-4.2l2.1,2.1v3.3C32.1,31.9,31.7,32.8,31,33.6z"/>
		<path class="st0" d="M20.9,73.7c-0.8,0.8-1.2,1.8-1.2,2.9V85c-0.2-0.5-0.5-0.9-0.9-1.2l-1.3-1.3v-7c0-1,0.4-1.9,1.1-2.7l10.2-10.2
			c0.8-0.8,1.2-1.8,1.2-2.9v-4.2l2.1,2.1v3.3c0,1-0.4,1.9-1.1,2.7L20.9,73.7z"/>
		<path class="st0" d="M30,85.3l2.1,2.1V90h-8.3c0.8-0.8,1.2-1.8,1.2-2.9v-6.7l2.1,2.1v5.8c0,0.6-0.1,1.1-0.4,1.6h0.4
			c0.2-0.5,0.3-1.1,0.3-1.6v-5.4l2.1,2.1v4.9H30V85.3z"/>
		<path class="st0" d="M33.5,58.9c0.7,0.7,1.1,1.7,1.1,2.7v12.9l-1-1c-0.7-0.7-1.1-1.7-1.1-2.7V57.9L33.5,58.9z"/>
		<path class="st0" d="M33.7,43.5c-0.7-0.7-1.1-1.7-1.1-2.7V27.9l1,1c0.7,0.7,1.1,1.7,1.1,2.7v12.9L33.7,43.5z"/>
		<path class="st0" d="M36,87.7c0.6,0.6,1,1.4,1.1,2.3h-4.6v-2.1l1,1c0.3,0.3,0.5,0.7,0.7,1h0.4c-0.2-0.5-0.5-0.9-0.9-1.3L23.6,78.5
			c-0.7-0.7-1.1-1.7-1.1-2.7v-3.3l2.1-2.1v4.2c0,1.1,0.4,2.1,1.2,2.9L36,87.7z"/>
		<path class="st0" d="M24.6,10.5v4.2c0,1.1,0.4,2.1,1.2,2.9L36,27.7c0.7,0.7,1.1,1.7,1.1,2.7v7l-1.3,1.3c-0.4,0.4-0.6,0.8-0.9,1.2
			v-8.3c0-1.1-0.4-2.1-1.2-2.9L23.6,18.5c-0.7-0.7-1.1-1.7-1.1-2.7v-3.2L24.6,10.5z"/>
		<path class="st0" d="M34.9,69.9v-8.3c0.1-1.1-0.3-2.1-1.1-2.9L23.6,48.5c-0.7-0.7-1.1-1.7-1.1-2.7v-3.3l2.1-2.1v4.2
			c0,1.1,0.4,2.1,1.2,2.9L36,57.7c0.7,0.7,1.1,1.7,1.1,2.7v7l-1.3,1.3C35.4,69.1,35.2,69.5,34.9,69.9z"/>
		<path class="st0" d="M27.1,8v5.4c0,1.1,0.4,2.1,1.2,2.9l10.2,10.2c0.7,0.7,1.1,1.7,1.1,2.7V35l-2.1,2.1v-6.7
			c0-1.1-0.4-2.1-1.2-2.9L26.1,17.3c-0.7-0.7-1.1-1.7-1.1-2.7v-4.5L27.1,8z"/>
		<path class="st0" d="M37.5,67.1v-6.7c0-1.1-0.4-2.2-1.2-2.9L26.1,47.3c-0.7-0.7-1.1-1.7-1.1-2.7v-4.5l2.1-2.1v5.4
			c0,1.1,0.4,2.1,1.2,2.9l10.2,10.2c0.7,0.7,1.1,1.7,1.1,2.7V65L37.5,67.1z"/>
		<path class="st0" d="M38.5,86.5c0.7,0.7,1.1,1.7,1.1,2.7V90h-2.1c-0.1-1-0.5-1.8-1.2-2.5L26.1,77.3c-0.7-0.7-1.1-1.7-1.1-2.7v-4.5
			l2.1-2.1v5.4c0,1.1,0.4,2.1,1.2,2.9L38.5,86.5z"/>
		<path class="st0" d="M29.6,5.5v6.7c0,1.1,0.4,2.1,1.2,2.9L41,25.2c0.7,0.7,1.1,1.7,1.1,2.7v4.5L40,34.6v-5.4
			c0-1.1-0.4-2.1-1.2-2.9L28.6,16c-0.7-0.7-1.1-1.7-1.1-2.7V7.6L29.6,5.5z"/>
		<path class="st0" d="M40,64.6v-5.4c0-1.2-0.4-2.2-1.2-3L28.6,46c-0.7-0.7-1.1-1.7-1.1-2.7v-5.8l2.1-2.1v6.7c0,1.1,0.4,2.1,1.2,2.9
			L41,55.2c0.7,0.7,1.1,1.7,1.1,2.7v4.5L40,64.6z"/>
		<path class="st0" d="M41,85.2c0.7,0.7,1.1,1.7,1.1,2.7V90H40v-0.9c0-1.1-0.4-2.1-1.2-2.9L28.6,76c-0.7-0.7-1.1-1.7-1.1-2.7v-5.8
			l2.1-2.1v6.7c0,1.1,0.4,2.1,1.2,2.9L41,85.2z"/>
		<path class="st0" d="M11.1,8.9l9-9h24.5L42.5,2V0h-0.4v2.4L40,4.6V0h-0.4v4.9L37.5,7V0h-0.4v7.4l-1.3,1.3C35.5,9.1,35.2,9.5,35,10
			V1.6C35,1,34.9,0.5,34.7,0h-0.4c0.2,0.5,0.4,1.1,0.4,1.6v12.9l-1-1c-0.7-0.7-1.1-1.7-1.1-2.7V0h-0.4v0.9c0,1-0.4,1.9-1.1,2.7
			L20.9,13.7c-0.8,0.8-1.2,1.8-1.2,2.9V25c-0.2-0.5-0.5-0.9-0.9-1.2l-1.3-1.3v-7c0-1,0.4-1.9,1.1-2.7L28.8,2.5C29.5,1.8,29.9,1,30,0
			h-0.4c-0.1,0.9-0.5,1.7-1.1,2.3L18.4,12.5c-0.8,0.8-1.2,1.8-1.2,2.9v6.7L15,19.9v-5.8c0-1,0.4-1.9,1.1-2.7L26.3,1.3
			C26.7,0.9,27,0.5,27.2,0h-0.4c-0.2,0.4-0.4,0.7-0.7,1L15.9,11.2c-0.8,0.8-1.2,1.8-1.2,2.9v5.4l-2.1-2.1v-4.5c0-1,0.4-1.9,1.1-2.7
			L23.8,0h-0.5l-10,10c-0.8,0.8-1.2,1.8-1.2,2.9v4.2L10,14.9v-3.3C10,10.6,10.4,9.7,11.1,8.9z"/>
		<path class="st0" d="M32.2,2.6v8.3c0,1.1,0.4,2.1,1.2,2.9L43.5,24c0.7,0.7,1.1,1.7,1.1,2.7V30l-2.1,2.1v-4.2
			c0-1.1-0.4-2.1-1.2-2.9L31.1,14.8c-0.7-0.7-1.1-1.7-1.1-2.7v-7l1.3-1.3C31.7,3.4,31.9,3,32.2,2.6z"/>
		<path class="st0" d="M42.5,62.1v-4.2c0-1.1-0.4-2.2-1.2-2.9L31.1,44.8c-0.7-0.7-1.1-1.7-1.1-2.7v-7l1.3-1.3
			c0.4-0.4,0.6-0.8,0.9-1.2v8.3c0,1.1,0.4,2.1,1.2,2.9L43.5,54c0.7,0.7,1.1,1.7,1.1,2.7V60L42.5,62.1z"/>
		<path class="st0" d="M43.5,84c0.7,0.7,1.1,1.7,1.1,2.7V90h-2.1v-2.1c0-1.1-0.4-2.1-1.2-2.9L31.1,74.8c-0.7-0.7-1.1-1.7-1.1-2.7v-7
			l1.3-1.3c0.4-0.4,0.6-0.8,0.9-1.2v8.3c0,1.1,0.4,2.1,1.2,2.9L43.5,84z"/>
		<path class="st0" d="M47.1,25.9c0,1-0.4,1.9-1.1,2.7l-1,1v-13c0-1,0.4-1.9,1.1-2.7l1-1V25.9z"/>
		<path class="st0" d="M45,46.6c0-1,0.4-1.9,1.1-2.7l1-1v13c0,1-0.4,1.9-1.1,2.7l-1,1V46.6z"/>
		<path class="st0" d="M46,88.6l-1,1v-13c0-1,0.4-1.9,1.1-2.7l1-1v13C47.1,86.9,46.7,87.8,46,88.6z"/>
		<path class="st0" d="M36.1,38.9l10.2-10.1c0.8-0.8,1.2-1.8,1.2-2.9v-8.3c0.2,0.5,0.5,0.9,0.9,1.2l1.3,1.3v7c0,1-0.4,1.9-1.1,2.7
			L38.4,40c-0.8,0.8-1.2,1.8-1.2,2.9v4.2L35,44.9v-3.3C35,40.6,35.4,39.7,36.1,38.9z"/>
		<path class="st0" d="M37.1,77.1L35,74.9v-3.3c0-1,0.4-1.9,1.1-2.7l10.2-10.2c0.8-0.8,1.2-1.8,1.2-2.9v-8.3
			c0.2,0.5,0.5,0.9,0.9,1.2l1.3,1.3v7c0,1-0.4,1.9-1.1,2.7L38.4,70c-0.8,0.8-1.2,1.8-1.2,2.9v4.2H37.1z"/>
		<path class="st0" d="M49.7,87.1c0,1-0.4,1.9-1.1,2.7L48.3,90h-3.2l1.2-1.2c0.8-0.8,1.2-1.8,1.2-2.9v-8.3c0.2,0.5,0.5,0.9,0.9,1.2
			l1.3,1.3V87.1z"/>
		<path class="st0" d="M50,20.4l2.1,2.1v5.9c0,1-0.4,1.9-1.1,2.7L40.9,41.2c-0.8,0.8-1.2,1.8-1.2,2.9v5.4l-2.1-2.1v-4.5
			c0-1,0.4-1.9,1.1-2.7L48.8,30c0.8-0.8,1.2-1.8,1.2-2.9V20.4z"/>
		<path class="st0" d="M39.6,79.6l-2.1-2.1V73c0-1,0.4-1.9,1.1-2.7L48.8,60c0.8-0.8,1.2-1.8,1.2-2.9v-6.7l2.1,2.1v5.8
			c0,1-0.4,1.9-1.1,2.7L40.9,71.2c-0.8,0.8-1.2,1.8-1.2,2.9v5.5H39.6z"/>
		<path class="st0" d="M51.3,31.2c0.8-0.7,1.2-1.7,1.2-2.8V23l2.1,2.1v4.5c0,1-0.4,1.9-1.1,2.7L43.4,42.5c-0.8,0.8-1.2,1.8-1.2,2.9
			v6.7L40,49.9v-5.8c0-1,0.4-1.9,1.1-2.7L51.3,31.2z"/>
		<path class="st0" d="M42.1,82.1L40,79.9v-5.8c0-1,0.4-1.9,1.1-2.7l10.2-10.2c0.8-0.8,1.2-1.8,1.2-2.9v-5.4l2.1,2.1v4.5
			c0,1-0.4,1.9-1.1,2.7L43.4,72.5c-0.8,0.8-1.2,1.8-1.2,2.9v6.7H42.1z"/>
		<path class="st0" d="M56,33.6L45.9,43.7c-0.8,0.8-1.2,1.8-1.2,2.9V55c-0.2-0.5-0.5-0.9-0.9-1.2l-1.3-1.3v-7c0-1,0.4-1.9,1.1-2.7
			l10.2-10.2c0.8-0.8,1.2-1.8,1.2-2.9v-4.2l2.1,2.1v3.3C57.1,31.9,56.7,32.8,56,33.6z"/>
		<path class="st0" d="M45.9,73.7c-0.8,0.8-1.2,1.8-1.2,2.9V85c-0.2-0.5-0.5-0.9-0.9-1.2l-1.3-1.3v-7c0-1,0.4-1.9,1.1-2.7l10.2-10.2
			c0.8-0.8,1.2-1.8,1.2-2.9v-4.2l2.1,2.1v3.3c0,1-0.4,1.9-1.1,2.7L45.9,73.7z"/>
		<path class="st0" d="M55,85.3l2.1,2.1V90h-8.3c0.8-0.8,1.2-1.8,1.2-2.9v-6.7l2.1,2.1v5.8c0,0.6-0.1,1.1-0.4,1.6h0.4
			c0.2-0.5,0.3-1.1,0.3-1.6v-5.4l2.1,2.1v4.9H55V85.3z"/>
		<path class="st0" d="M58.5,58.9c0.7,0.7,1.1,1.7,1.1,2.7v13l-1-1c-0.7-0.7-1.1-1.7-1.1-2.7v-13L58.5,58.9z"/>
		<path class="st0" d="M58.7,43.5c-0.7-0.7-1.1-1.7-1.1-2.7V27.9l1,1c0.7,0.7,1.1,1.7,1.1,2.7v12.9L58.7,43.5z"/>
		<path class="st0" d="M61,87.7c0.6,0.6,1,1.4,1.1,2.3h-4.6v-2.1l1,1c0.3,0.3,0.5,0.7,0.7,1h0.4c-0.2-0.5-0.5-0.9-0.9-1.3L48.6,78.5
			c-0.7-0.7-1.1-1.7-1.1-2.7v-3.2l2.1-2.1v4.2c0,1.1,0.4,2.1,1.2,2.9L61,87.7z"/>
		<path class="st0" d="M49.6,10.5v4.2c0,1.1,0.4,2.1,1.2,2.9L61,27.7c0.7,0.7,1.1,1.7,1.1,2.7v7l-1.3,1.3c-0.4,0.4-0.6,0.8-0.9,1.2
			v-8.3c0-1.1-0.4-2.1-1.2-2.9L48.6,18.5c-0.7-0.7-1.1-1.7-1.1-2.7v-3.2L49.6,10.5z"/>
		<path class="st0" d="M59.9,69.9v-8.3c0.1-1.1-0.3-2.1-1.1-2.9L48.6,48.5c-0.7-0.7-1.1-1.7-1.1-2.7v-3.2l2.1-2.1v4.2
			c0,1.1,0.4,2.1,1.2,2.9L61,57.7c0.7,0.7,1.1,1.7,1.1,2.7v7l-1.3,1.3C60.4,69.1,60.2,69.5,59.9,69.9z"/>
		<path class="st0" d="M52.1,8v5.4c0,1.1,0.4,2.1,1.2,2.9l10.2,10.2c0.7,0.7,1.1,1.7,1.1,2.7V35l-2.1,2.1v-6.7
			c0-1.1-0.4-2.1-1.2-2.9L51.1,17.3c-0.7-0.7-1.1-1.7-1.1-2.7v-4.5L52.1,8z"/>
		<path class="st0" d="M62.5,67.1v-6.7c0-1.1-0.4-2.2-1.2-2.9L51.1,47.3c-0.7-0.7-1.1-1.7-1.1-2.7v-4.5l2.1-2.1v5.4
			c0,1.1,0.4,2.1,1.2,2.9l10.2,10.2c0.7,0.7,1.1,1.7,1.1,2.7V65L62.5,67.1z"/>
		<path class="st0" d="M63.5,86.5c0.7,0.7,1.1,1.7,1.1,2.7V90h-2.1c-0.1-1-0.5-1.8-1.2-2.5L51.1,77.3c-0.7-0.7-1.1-1.7-1.1-2.7v-4.5
			l2.1-2.1v5.4c0,1.1,0.4,2.1,1.2,2.9L63.5,86.5z"/>
		<path class="st0" d="M54.6,5.5v6.7c0,1.1,0.4,2.1,1.2,2.9L66,25.2c0.7,0.7,1.1,1.7,1.1,2.7v4.5L65,34.6v-5.4
			c0-1.1-0.4-2.1-1.2-2.9L53.6,16c-0.7-0.7-1.1-1.7-1.1-2.7V7.6L54.6,5.5z"/>
		<path class="st0" d="M65,64.6v-5.4c0-1.2-0.4-2.2-1.2-3L53.6,46c-0.7-0.7-1.1-1.7-1.1-2.7v-5.8l2.1-2.1v6.7c0,1.1,0.4,2.1,1.2,2.9
			L66,55.2c0.7,0.7,1.1,1.7,1.1,2.7v4.5L65,64.6z"/>
		<path class="st0" d="M66,85.2c0.7,0.7,1.1,1.7,1.1,2.7V90H65v-0.9c0-1.1-0.4-2.1-1.2-2.9L53.6,76c-0.7-0.7-1.1-1.7-1.1-2.7v-5.8
			l2.1-2.1v6.7c0,1.1,0.4,2.1,1.2,2.9L66,85.2z"/>
		<path class="st0" d="M36.1,8.9l9-9h24.5L67.5,2V0h-0.4v2.4L65,4.6V0h-0.4v4.9L62.5,7V0h-0.4v7.4l-1.3,1.3C60.5,9.1,60.2,9.5,60,10
			V1.6C60,1,59.9,0.5,59.7,0h-0.4c0.2,0.5,0.4,1.1,0.4,1.6v12.9l-1-1c-0.7-0.7-1.1-1.7-1.1-2.7V0h-0.4v0.9c0,1-0.4,1.9-1.1,2.7
			L45.9,13.7c-0.8,0.8-1.2,1.8-1.2,2.9V25c-0.2-0.5-0.5-0.9-0.9-1.2l-1.3-1.3v-7c0-1,0.4-1.9,1.1-2.7L53.8,2.5C54.5,1.8,54.9,1,55,0
			h-0.4c-0.1,0.9-0.5,1.7-1.1,2.3L43.4,12.5c-0.8,0.8-1.2,1.8-1.2,2.9v6.7L40,19.9v-5.8c0-1,0.4-1.9,1.1-2.7L51.3,1.3
			C51.7,0.9,52,0.5,52.2,0h-0.4c-0.2,0.4-0.4,0.7-0.7,1L40.9,11.2c-0.8,0.8-1.2,1.8-1.2,2.9v5.4l-2.1-2.1v-4.5c0-1,0.4-1.9,1.1-2.7
			L48.8,0h-0.5l-10,10c-0.8,0.8-1.2,1.8-1.2,2.9v4.2L35,14.9v-3.3C35,10.6,35.4,9.7,36.1,8.9z"/>
		<path class="st0" d="M57.2,2.6v8.3c0,1.1,0.4,2.1,1.2,2.9L68.5,24c0.7,0.7,1.1,1.7,1.1,2.7V30l-2.1,2.1v-4.2
			c0-1.1-0.4-2.1-1.2-2.9L56.1,14.8c-0.7-0.7-1.1-1.7-1.1-2.7v-7l1.3-1.3C56.7,3.4,56.9,3,57.2,2.6z"/>
		<path class="st0" d="M67.5,62v-4.2c0-1-0.4-2.1-1.2-2.8L56.1,44.8c-0.7-0.7-1.1-1.7-1.1-2.7v-7l1.3-1.3c0.4-0.4,0.6-0.8,0.9-1.2
			v8.3c0,1.1,0.4,2.1,1.2,2.9L68.5,54c0.7,0.7,1.1,1.7,1.1,2.7v3.2L67.5,62z"/>
		<path class="st0" d="M68.5,84c0.7,0.7,1.1,1.7,1.1,2.7V90h-2.1v-2.1c0-1.1-0.4-2.1-1.2-2.9L56.1,74.8c-0.7-0.7-1.1-1.7-1.1-2.7v-7
			l1.3-1.3c0.4-0.4,0.6-0.8,0.9-1.2v8.3c0,1.1,0.4,2.1,1.2,2.9L68.5,84z"/>
		<path class="st0" d="M72.1,25.8c0,1-0.4,1.9-1.1,2.7l-1,1V16.6c0-1,0.4-1.9,1.1-2.7l1-1V25.8z"/>
		<path class="st0" d="M70,46.6c0-1,0.4-1.9,1.1-2.7l1-1v12.9c0,1-0.4,1.9-1.1,2.7l-1,1V46.6z"/>
		<path class="st0" d="M71,88.6l-1,1V76.7c0-1,0.4-1.9,1.1-2.7l1-1v12.9C72.1,86.9,71.7,87.8,71,88.6z"/>
		<path class="st0" d="M61.1,38.9l10.2-10.1c0.8-0.8,1.2-1.8,1.2-2.9v-8.3c0.2,0.5,0.5,0.9,0.9,1.2l1.3,1.3v7c0,1-0.4,1.9-1.1,2.7
			L63.3,40c-0.8,0.8-1.2,1.8-1.2,2.9v4.2L60,44.9v-3.3C60,40.6,60.4,39.7,61.1,38.9z"/>
		<path class="st0" d="M62.1,77.1L60,74.9v-3.3c0-1,0.4-1.9,1.1-2.7l10.2-10.2c0.8-0.8,1.2-1.8,1.2-2.9v-8.3
			c0.2,0.5,0.5,0.9,0.9,1.2l1.3,1.3v7c0,1-0.4,1.9-1.1,2.7L63.3,70c-0.8,0.8-1.2,1.8-1.2,2.9V77.1z"/>
		<path class="st0" d="M74.7,87.1c0,1-0.4,1.9-1.1,2.7L73.3,90h-3.2l1.2-1.2c0.8-0.8,1.2-1.8,1.2-2.9v-8.3c0.2,0.5,0.5,0.9,0.9,1.2
			l1.3,1.3C74.7,80.1,74.7,87.1,74.7,87.1z"/>
		<path class="st0" d="M75,20.4l2.1,2.1v5.9c0,1-0.4,1.9-1.1,2.7L65.8,41.2C65,42,64.6,43,64.6,44.1v5.4l-2.1-2.1v-4.5
			c0-1,0.4-1.9,1.1-2.7L73.8,30c0.8-0.8,1.2-1.8,1.2-2.9V20.4z"/>
		<path class="st0" d="M64.6,79.6l-2.1-2.1V73c0-1,0.4-1.9,1.1-2.7L73.8,60c0.8-0.8,1.2-1.8,1.2-2.9v-6.7l2.1,2.1v5.8
			c0,1-0.4,1.9-1.1,2.7L65.8,71.2C65,72,64.6,73,64.6,74.1V79.6z"/>
		<path class="st0" d="M76.3,31.2c0.8-0.7,1.2-1.7,1.2-2.8V23l2.1,2.1v4.5c0,1-0.4,1.9-1.1,2.7L68.4,42.5c-0.8,0.8-1.2,1.8-1.2,2.9
			v6.7L65,49.9v-5.8c0-1,0.4-1.9,1.1-2.7L76.3,31.2z"/>
		<path class="st0" d="M67.1,82.1L65,79.9v-5.8c0-1,0.4-1.9,1.1-2.7l10.2-10.2c0.8-0.8,1.2-1.8,1.2-2.9v-5.4l2.1,2.1v4.5
			c0,1-0.4,1.9-1.1,2.7L68.4,72.5c-0.8,0.8-1.2,1.8-1.2,2.9v6.7H67.1z"/>
		<path class="st0" d="M81,33.6L70.9,43.7c-0.8,0.8-1.2,1.8-1.2,2.9V55c-0.2-0.5-0.5-0.9-0.9-1.2l-1.3-1.3v-7c0-1,0.4-1.9,1.1-2.7
			l10.2-10.2c0.8-0.8,1.2-1.8,1.2-2.9v-4.2l2.1,2.1v3.3C82.1,31.9,81.7,32.8,81,33.6z"/>
		<path class="st0" d="M70.9,73.7c-0.8,0.8-1.2,1.8-1.2,2.9V85c-0.2-0.5-0.5-0.9-0.9-1.2l-1.3-1.3v-7c0-1,0.4-1.9,1.1-2.7l10.2-10.2
			c0.8-0.8,1.2-1.8,1.2-2.9v-4.2l2.1,2.1v3.3c0,1-0.4,1.9-1.1,2.7L70.9,73.7z"/>
		<path class="st0" d="M80,85.3l2.1,2.1V90h-8.3c0.8-0.8,1.2-1.8,1.2-2.9v-6.7l2.1,2.1v5.8c0,0.6-0.1,1.1-0.4,1.6h0.4
			c0.2-0.5,0.3-1.1,0.3-1.6v-5.4l2.1,2.1v4.9H80V85.3z"/>
		<path class="st0" d="M83.5,29c0.8,0.7,1.1,1.6,1.1,2.6v13l-1-1c-0.7-0.7-1.1-1.7-1.1-2.7V28L83.5,29z"/>
		<path class="st0" d="M83.5,58.8c0.7,0.7,1.1,1.7,1.1,2.7v13l-1-1c-0.7-0.7-1.1-1.7-1.1-2.7v-13L83.5,58.8z"/>
		<path class="st0" d="M86,87.7c0.6,0.6,1,1.4,1.1,2.3h-4.6v-2.1l1,1c0.3,0.3,0.5,0.7,0.7,1h0.4c-0.2-0.5-0.5-0.9-0.9-1.3L73.6,78.5
			c-0.7-0.7-1.1-1.7-1.1-2.7v-3.3l2.1-2.1v4.2c0,1.1,0.4,2.1,1.2,2.9L86,87.7z"/>
		<path class="st0" d="M74.6,10.5v4.2c0,1.1,0.4,2.1,1.2,2.9L86,27.7c0.7,0.7,1.1,1.7,1.1,2.7v7l-1.3,1.3c-0.4,0.4-0.6,0.8-0.9,1.2
			v-8.3c0-1.1-0.4-2.1-1.2-2.9L73.6,18.5c-0.7-0.7-1.1-1.7-1.1-2.7v-3.2L74.6,10.5z"/>
		<path class="st0" d="M84.9,69.9v-8.3c0.1-1.1-0.3-2.1-1.1-2.9L73.6,48.5c-0.7-0.7-1.1-1.7-1.1-2.7v-3.3l2.1-2.1v4.2
			c0,1.1,0.4,2.1,1.2,2.9L86,57.7c0.7,0.7,1.1,1.7,1.1,2.7v7l-1.3,1.3C85.4,69.1,85.2,69.5,84.9,69.9z"/>
		<path class="st0" d="M77.1,8v5.4c0,1.1,0.4,2.1,1.2,2.9l10.2,10.2c0.7,0.7,1.1,1.7,1.1,2.7V35l-2.1,2.1v-6.7
			c0-1.1-0.4-2.1-1.2-2.9L76.1,17.3c-0.7-0.7-1.1-1.7-1.1-2.7v-4.5L77.1,8z"/>
		<path class="st0" d="M87.5,67.1v-6.7c0-1.1-0.4-2.2-1.2-2.9L76.1,47.3c-0.7-0.7-1.1-1.7-1.1-2.7v-4.5l2.1-2.1v5.4
			c0,1.1,0.4,2.1,1.2,2.9l10.2,10.2c0.7,0.7,1.1,1.7,1.1,2.7V65L87.5,67.1z"/>
		<path class="st0" d="M88.5,86.5c0.7,0.7,1.1,1.7,1.1,2.7V90h-2.1c-0.1-1-0.5-1.8-1.2-2.5L76.1,77.3c-0.7-0.7-1.1-1.7-1.1-2.7v-4.5
			l2.1-2.1v5.4c0,1.1,0.4,2.1,1.2,2.9L88.5,86.5z"/>
		<path class="st0" d="M79.6,5.5v6.7c0,1.1,0.4,2.1,1.2,2.9L91,25.2c0.7,0.7,1.1,1.7,1.1,2.7v4.5L90,34.6v-5.4
			c0-1.1-0.4-2.1-1.2-2.9L78.6,16c-0.7-0.7-1.1-1.7-1.1-2.7V7.6L79.6,5.5z"/>
		<path class="st0" d="M79.6,35.4v6.7c0,1.1,0.5,2.2,1.2,2.9L91,55.2c0.7,0.7,1.1,1.7,1.1,2.7v4.5L90,64.6v-5.4
			c0-1.1-0.4-2.1-1.2-2.9L78.6,46c-0.7-0.7-1.1-1.7-1.1-2.7v-5.8L79.6,35.4z"/>
		<path class="st0" d="M91,85.2c0.7,0.7,1.1,1.7,1.1,2.7V90H90v-0.9c0-1.1-0.4-2.1-1.2-2.9L78.6,76c-0.7-0.7-1.1-1.7-1.1-2.7v-5.8
			l2.1-2.1v6.7c0,1.1,0.4,2.1,1.2,2.9L91,85.2z"/>
		<path class="st0" d="M61.1,8.9l9-9h24.5L92.5,2V0h-0.4v2.4L90,4.6V0h-0.4v4.9L87.5,7V0h-0.4v7.4l-1.3,1.3C85.5,9.1,85.2,9.5,85,10
			V1.6C85,1,84.9,0.5,84.7,0h-0.4c0.2,0.5,0.4,1.1,0.4,1.6v13l-1-1c-0.7-0.7-1.1-1.7-1.1-2.7V0h-0.4v0.9c0,1-0.4,1.9-1.1,2.7
			L70.9,13.7c-0.8,0.8-1.2,1.8-1.2,2.9V25c-0.2-0.5-0.5-0.9-0.9-1.2l-1.3-1.3v-7c0-1,0.4-1.9,1.1-2.7L78.8,2.5C79.5,1.8,79.9,1,80,0
			h-0.4c-0.1,0.9-0.5,1.7-1.1,2.3L68.4,12.5c-0.8,0.8-1.2,1.8-1.2,2.9v6.7L65,19.9v-5.8c0-1,0.4-1.9,1.1-2.7L76.3,1.3
			C76.7,0.9,77,0.5,77.2,0h-0.4c-0.2,0.4-0.4,0.7-0.7,1L65.8,11.2C65,12,64.6,13,64.6,14.1v5.4l-2.1-2.1v-4.5c0-1,0.4-1.9,1.1-2.7
			L73.8,0h-0.5l-10,10c-0.8,0.8-1.2,1.8-1.2,2.9v4.2L60,14.9v-3.3C60,10.6,60.4,9.7,61.1,8.9z"/>
		<path class="st0" d="M93.5,24c0.7,0.7,1.1,1.7,1.1,2.7v3.2L92.5,32v-4.2c0-1.1-0.4-2.1-1.2-2.9L81.1,14.8
			c-0.7-0.7-1.1-1.7-1.1-2.7v-7l1.3-1.3c0.4-0.4,0.6-0.8,0.9-1.2v8.3c0,1.1,0.4,2.1,1.2,2.9L93.5,24z"/>
		<path class="st0" d="M93.5,54c0.7,0.7,1.1,1.7,1.1,2.7V60l-2.1,2.1v-4.2c0-1.1-0.4-2.1-1.2-2.9L81.1,44.8
			c-0.7-0.7-1.1-1.7-1.1-2.7v-7l1.3-1.3c0.4-0.4,0.6-0.8,0.9-1.2v8.3c0,1.1,0.4,2.1,1.2,2.9L93.5,54z"/>
		<path class="st0" d="M93.5,84c0.7,0.7,1.1,1.7,1.1,2.7V90h-2.1v-2.1c0-1.1-0.4-2.1-1.2-2.9L81.1,74.8c-0.7-0.7-1.1-1.7-1.1-2.7v-7
			l1.3-1.3c0.4-0.4,0.6-0.8,0.9-1.2v8.3c0,1.1,0.4,2.1,1.2,2.9L93.5,84z"/>
		<path class="st0" d="M97.1,25.8c0,1-0.4,1.9-1.1,2.7l-1,1V16.6c0-1,0.4-1.9,1.1-2.7l1-1V25.8z"/>
		<path class="st0" d="M97.1,55.9c0,1-0.4,1.9-1.1,2.7l-1,1v-13c0-1,0.4-1.9,1.1-2.7l1-1V55.9z"/>
		<path class="st0" d="M96,88.6l-1,1v-13c0-1,0.4-1.9,1.1-2.7l1-1v13C97.1,86.9,96.7,87.8,96,88.6z"/>
		<path class="st0" d="M86.1,38.9l10.2-10.1c0.8-0.8,1.2-1.8,1.2-2.9v-8.3c0.2,0.5,0.5,0.9,0.9,1.2l1.3,1.3v7c0,1-0.4,1.9-1.1,2.7
			L88.3,40c-0.8,0.8-1.2,1.8-1.2,2.9v4.2L85,44.9v-3.3C85,40.6,85.4,39.7,86.1,38.9z"/>
		<path class="st0" d="M86.1,68.9l10.2-10.1c0.8-0.8,1.2-1.8,1.2-2.9v-8.3c0.2,0.5,0.5,0.9,0.9,1.2l1.3,1.3v7c0,1-0.4,1.9-1.1,2.7
			L88.3,70c-0.8,0.8-1.2,1.8-1.2,2.9v4.2L85,74.9v-3.3C85,70.6,85.4,69.7,86.1,68.9z"/>
		<path class="st0" d="M99.7,87.1c0,1-0.4,1.9-1.1,2.7L98.3,90h-3.2l1.2-1.2c0.8-0.8,1.2-1.8,1.2-2.9v-8.3c0.2,0.5,0.5,0.9,0.9,1.2
			l1.3,1.3C99.7,80.1,99.7,87.1,99.7,87.1z"/>
		<path class="st0" d="M100-0.1v2.2l-9.2,9.2c-0.8,0.8-1.2,1.8-1.2,2.9v5.4l-2.1-2.1V13c0-1,0.4-1.9,1.1-2.7L98.8,0h-0.5l-10,10
			c-0.8,0.8-1.2,1.8-1.2,2.9v4.2L85,14.9v-3.3c0-1,0.4-1.9,1.1-2.7l9-9C95.1-0.1,100-0.1,100-0.1z"/>
		<path class="st0" d="M91.1,11.5l8.9-8.9v7l-4.2,4.2c-0.8,0.8-1.2,1.8-1.2,2.9V25c-0.2-0.5-0.5-0.9-0.9-1.2l-1.3-1.3v-7
			c0-1,0.4-1.9,1.1-2.7l6.4-6.4V5.8l-6.7,6.7c-0.8,0.8-1.2,1.8-1.2,2.9v6.7l-2-2.2v-5.8C90,13.1,90.4,12.2,91.1,11.5z"/>
		<path class="st0" d="M99.6,14.6c0,0.6,0.1,1.1,0.4,1.7v3.6l-1.4-1.4c-0.7-0.7-1.1-1.7-1.1-2.7v-3.3l2.1-2.1V14.6z"/>
		<path class="st0" d="M98.8,30c0.8-0.8,1.2-1.8,1.2-2.9V32l-9.2,9.2C90,42,89.6,43,89.6,44.1v5.4l-2.1-2.1v-4.5
			c0-1,0.4-1.9,1.1-2.7L98.8,30z"/>
		<path class="st0" d="M91.1,41.4l8.9-8.9v7.1l-4.2,4.2c-0.8,0.8-1.2,1.8-1.2,2.9V55c-0.2-0.5-0.5-0.9-0.9-1.2l-1.3-1.3v-7
			c0-1,0.4-1.9,1.1-2.7l6.4-6.4v-0.5l-6.7,6.7c-0.8,0.8-1.2,1.8-1.2,2.9v6.7l-2-2.3v-5.8C90,43.1,90.4,42.2,91.1,41.4z"/>
		<path class="st0" d="M99.6,44.6c0,0.6,0.1,1.1,0.4,1.7v3.6l-1.4-1.4c-0.7-0.7-1.1-1.7-1.1-2.7v-3.3l2.1-2.1V44.6z"/>
		<path class="st0" d="M98.8,60c0.8-0.8,1.2-1.8,1.2-2.9V62l-9.2,9.2C90,72,89.6,73,89.6,74.1v5.4l-2.1-2.1v-4.5
			c0-1,0.4-1.9,1.1-2.7L98.8,60z"/>
		<path class="st0" d="M91.1,71.4l8.9-8.9v7.1l-4.2,4.2c-0.8,0.8-1.2,1.8-1.2,2.9V85c-0.2-0.5-0.5-0.9-0.9-1.2l-1.3-1.3v-7
			c0-1,0.4-1.9,1.1-2.7l6.4-6.4v-0.5l-6.7,6.7c-0.8,0.8-1.2,1.8-1.2,2.9v6.7l-2-2.3v-5.8C90,73.1,90.4,72.2,91.1,71.4z"/>
		<path class="st0" d="M99.6,74.6c0,0.6,0.1,1.1,0.4,1.7v3.6l-1.4-1.4c-0.7-0.7-1.1-1.7-1.1-2.7v-3.3l2.1-2.1V74.6z"/>
		<path class="st0" d="M98.8,90c0.8-0.8,1.2-1.8,1.2-2.9V90H98.8z"/>
	</g>
</g>
</svg>
