<?xml version="1.0" encoding="utf-8"?>
<!-- Generator: Adobe Illustrator 27.0.0, SVG Export Plug-In . SVG Version: 6.00 Build 0)  -->
<svg version="1.1" id="Layer_1" xmlns="http://www.w3.org/2000/svg" xmlns:xlink="http://www.w3.org/1999/xlink" x="0px" y="0px"
	 viewBox="0 0 480.18 484.42" style="enable-background:new 0 0 480.18 484.42;" xml:space="preserve">
<style type="text/css">
	.st0{opacity:0.5;fill:#FFFFFF;stroke:#000000;stroke-miterlimit:10;}
	.st1{display:none;fill:#FFFFFF;stroke:url(#SVGID_1_);stroke-width:18;stroke-miterlimit:10;}
	.st2{display:none;fill:#FFFFFF;stroke:#000000;stroke-width:5;stroke-miterlimit:10;}
	.st3{fill:url(#SVGID_00000044161702386383667130000014538969380068373179_);stroke:#000000;stroke-width:5;stroke-miterlimit:10;}
	.st4{fill:url(#SVGID_00000143579728244446942500000014978048072429257611_);stroke:#000000;stroke-width:6;stroke-miterlimit:10;}
	.st5{opacity:0.1;}
	.st6{fill:#2E3192;}
	.st7{opacity:0.5;}
	.st8{fill:#EDF0F2;}
	
		.st9{display:none;fill:#FFFFFF;stroke:#000000;stroke-width:0.75;stroke-linecap:round;stroke-linejoin:round;stroke-miterlimit:10;}
	
		.st10{fill:url(#SVGID_00000023258715626446340490000002411237605478528424_);stroke:#000000;stroke-width:5;stroke-linecap:round;stroke-linejoin:round;stroke-miterlimit:10;}
	
		.st11{fill:url(#SVGID_00000041986901188788014720000006107975783746367882_);stroke:#000000;stroke-width:5;stroke-linecap:round;stroke-linejoin:round;stroke-miterlimit:10;}
</style>
<path class="st0" d="M357.75,423.19H81.3c-40.27,0-72.92-32.65-72.92-72.92V82.24c0-40.27,32.65-72.92,72.92-72.92h276.45
	c40.27,0,72.92,32.65,72.92,72.92v268.03C430.67,390.54,398.02,423.19,357.75,423.19z"/>
<linearGradient id="SVGID_1_" gradientUnits="userSpaceOnUse" x1="136.37" y1="595.4531" x2="322.985" y2="595.4531" gradientTransform="matrix(1 0 0 1 0 -358)">
	<stop  offset="0" style="stop-color:#9A1F24"/>
	<stop  offset="0.3248" style="stop-color:#C92222"/>
	<stop  offset="1" style="stop-color:#C42B27"/>
</linearGradient>
<path class="st1" d="M145.37,141.1v192.71c0,9.87,11.01,15.75,19.21,10.26l143.93-96.36c7.3-4.89,7.3-15.63,0-20.52l-143.93-96.36
	C156.38,125.35,145.37,131.23,145.37,141.1z"/>
<g>
	<path class="st2" d="M372.78,423.1H63.67c-27.55,0-49.88-22.33-49.88-49.88V64.11c0-27.55,22.33-49.88,49.88-49.88h309.11
		c27.55,0,49.88,22.33,49.88,49.88v309.11C422.66,400.77,400.33,423.1,372.78,423.1z"/>
	
		<linearGradient id="SVGID_00000147928045518365074440000009522813172665191040_" gradientUnits="userSpaceOnUse" x1="3.79" y1="576.665" x2="432.66" y2="576.665" gradientTransform="matrix(1 0 0 1 0 -358)">
		<stop  offset="0" style="stop-color:#9A1F24"/>
		<stop  offset="0.3248" style="stop-color:#C92222"/>
		<stop  offset="1" style="stop-color:#EE2424"/>
	</linearGradient>
	
		<path style="fill:url(#SVGID_00000147928045518365074440000009522813172665191040_);stroke:#000000;stroke-width:5;stroke-miterlimit:10;" d="
		M372.78,433.1H63.67c-33.02,0-59.88-26.86-59.88-59.88V64.11c0-33.02,26.86-59.88,59.88-59.88h309.11
		c33.02,0,59.88,26.86,59.88,59.88v309.11C432.66,406.24,405.8,433.1,372.78,433.1z M63.67,24.24c-21.99,0-39.88,17.89-39.88,39.88
		v309.11c0,21.99,17.89,39.88,39.88,39.88h309.11c21.99,0,39.88-17.89,39.88-39.88V64.11c0-21.99-17.89-39.88-39.88-39.88H63.67
		V24.24z"/>
</g>
<linearGradient id="SVGID_00000146468120805041698570000001919351741016733601_" gradientUnits="userSpaceOnUse" x1="151.01" y1="576.6622" x2="319.625" y2="576.6622" gradientTransform="matrix(1 0 0 1 0 -358)">
	<stop  offset="0" style="stop-color:#9A1F24"/>
	<stop  offset="0.3248" style="stop-color:#C92222"/>
	<stop  offset="1" style="stop-color:#EE2424"/>
</linearGradient>
<path style="fill:url(#SVGID_00000146468120805041698570000001919351741016733601_);stroke:#000000;stroke-width:6;stroke-miterlimit:10;" d="
	M151.01,133.64v170.04c0,8.71,11.01,13.9,19.21,9.05l143.93-85.02c7.3-4.31,7.3-13.79,0-18.11l-143.93-85.01
	C162.02,119.75,151.01,124.93,151.01,133.64z"/>
<g>
	<g>
		<g class="st5">
			<g>
				<g>
					<path class="st6" d="M475.96,399.08l-2.37,7.38c-4.76,14.96-12.89,28.96-23.5,40.48l-5.23,5.68c-0.89,0.96-2.37,1.07-3.39,0.26
						l-6.04-4.78c-4.5-3.54-10.34-5.13-16.02-4.33c-5.6,0.77-10.56,3.68-13.98,8.19c-3.41,4.52-4.86,10.08-4.08,15.69l1.09,7.61
						c0.19,1.3-0.65,2.52-1.93,2.8l-7.53,1.66c-7.54,1.64-15.26,2.47-22.94,2.47c-8.03-0.02-16.07-0.92-23.91-2.68l-7.54-1.67
						c-1.28-0.28-2.12-1.5-1.93-2.8l1.1-7.65c1.29-8.51-2.69-16.76-10.15-21.04c-7.49-4.31-16.73-3.66-23.55,1.66l-6.1,4.7
						c-1.04,0.8-2.51,0.66-3.38-0.3l-5.16-5.69c-10.5-11.52-18.46-25.49-23.03-40.41l-2.2-7.28c-0.38-1.23,0.25-2.54,1.44-3.03
						l7.05-2.89c8-3.23,13.2-10.88,13.25-19.49c0.06-8.48-4.96-16.06-12.79-19.31l-7.08-2.96c-1.19-0.51-1.81-1.84-1.41-3.08
						l2.36-7.29c4.77-14.85,12.87-28.77,23.45-40.25l5.15-5.58c0.88-0.95,2.34-1.07,3.36-0.28l6.01,4.61
						c4.42,3.35,9.9,4.83,15.43,4.16c5.63-0.69,10.66-3.53,14.15-8c3.5-4.47,5.05-10.04,4.36-15.68l-0.95-7.51
						c-0.16-1.28,0.68-2.48,1.95-2.75l7.39-1.6c15.24-3.37,31.36-3.37,46.6,0l7.51,1.66c1.27,0.28,2.11,1.49,1.94,2.78l-1.03,7.6
						c-1.18,8.43,2.83,16.61,10.21,20.84c7.48,4.3,16.71,3.66,23.53-1.63l6.05-4.67c1.03-0.79,2.49-0.67,3.37,0.29l5.18,5.62
						c10.59,11.46,18.65,25.4,23.3,40.29l2.31,7.34c0.4,1.24-0.23,2.58-1.45,3.07l-7.15,2.88c-8.07,3.19-13.32,10.85-13.37,19.52
						c-0.09,8.48,5.14,16.29,13.01,19.42c0.01,0,0.01,0,0.01,0l7.18,2.89C475.73,396.49,476.36,397.84,475.96,399.08z"/>
				</g>
			</g>
		</g>
	</g>
	<g class="st7">
		<g>
			<g>
				<path class="st8" d="M466.01,393.53l-2.37,7.38c-4.76,14.96-12.89,28.96-23.5,40.48l-5.23,5.68c-0.89,0.96-2.37,1.07-3.39,0.26
					l-6.04-4.78c-4.5-3.54-10.34-5.13-16.02-4.33c-5.6,0.77-10.56,3.68-13.98,8.19c-3.41,4.52-4.86,10.08-4.08,15.69l1.09,7.61
					c0.19,1.3-0.65,2.52-1.93,2.8l-7.53,1.66c-7.54,1.64-15.26,2.47-22.94,2.47c-8.03-0.02-16.07-0.92-23.91-2.68l-7.54-1.67
					c-1.28-0.28-2.12-1.5-1.93-2.8l1.1-7.65c1.29-8.51-2.69-16.76-10.15-21.04c-7.49-4.31-16.73-3.66-23.55,1.66l-6.1,4.7
					c-1.04,0.8-2.51,0.66-3.38-0.3l-5.16-5.69c-10.5-11.52-18.46-25.49-23.03-40.41l-2.2-7.28c-0.38-1.23,0.25-2.54,1.44-3.03
					l7.05-2.89c8-3.23,13.2-10.88,13.25-19.49c0.06-8.48-4.96-16.06-12.79-19.31l-7.08-2.96c-1.19-0.51-1.81-1.84-1.41-3.08
					l2.36-7.29c4.77-14.85,12.87-28.77,23.45-40.25l5.15-5.58c0.88-0.95,2.34-1.07,3.36-0.28l6.01,4.61
					c4.42,3.35,9.9,4.83,15.43,4.16c5.63-0.69,10.66-3.53,14.15-8c3.5-4.47,5.05-10.04,4.36-15.68l-0.95-7.51
					c-0.16-1.28,0.68-2.48,1.95-2.75l7.39-1.6c15.24-3.37,31.36-3.37,46.6,0l7.51,1.66c1.27,0.28,2.11,1.49,1.94,2.78l-1.03,7.6
					c-1.18,8.43,2.83,16.61,10.21,20.84c7.48,4.3,16.71,3.66,23.53-1.63l6.05-4.67c1.03-0.79,2.49-0.67,3.37,0.29l5.18,5.62
					c10.59,11.46,18.65,25.4,23.3,40.29l2.31,7.34c0.4,1.24-0.23,2.58-1.45,3.07l-7.15,2.88c-8.07,3.19-13.32,10.85-13.37,19.52
					c-0.09,8.48,5.14,16.29,13.01,19.42c0.01,0,0.01,0,0.01,0l7.18,2.89C465.78,390.94,466.41,392.29,466.01,393.53z"/>
			</g>
		</g>
	</g>
	<g>
		<polygon class="st9" points="268.06,336.05 289.73,364.71 272.84,394.39 277.11,421.61 289.73,434.64 331.04,436.38 
			340.59,467.21 379.25,467.21 394.02,431.6 424.85,433.77 437.88,431.16 453.09,401.63 433.98,375.14 443.47,342.27 453.09,336.05 
			434.84,303.04 397.06,306.51 379.68,281.32 377.08,268.17 341.46,271.52 328,295.22 308.45,309.55 289.73,305.21 		"/>
		<g>
			
				<linearGradient id="SVGID_00000019679935635276028470000006463124948914533251_" gradientUnits="userSpaceOnUse" x1="391.8564" y1="757.8055" x2="328.9149" y2="694.864" gradientTransform="matrix(1 0 0 1 0 -358)">
				<stop  offset="0" style="stop-color:#9A1F24"/>
				<stop  offset="0.3248" style="stop-color:#C92222"/>
				<stop  offset="1" style="stop-color:#EE2424"/>
			</linearGradient>
			
				<path style="fill:url(#SVGID_00000019679935635276028470000006463124948914533251_);stroke:#000000;stroke-width:5;stroke-linecap:round;stroke-linejoin:round;stroke-miterlimit:10;" d="
				M398.97,346.16c-12.25-21.31-39.45-28.65-60.76-16.4s-28.65,39.45-16.4,60.76c12.24,21.29,39.42,28.64,60.72,16.42
				C403.84,394.69,411.19,367.49,398.97,346.16z M373.34,390.92c-12.48,7.16-28.4,2.86-35.57-9.62c-7.16-12.48-2.86-28.4,9.62-35.57
				c12.48-7.16,28.4-2.86,35.56,9.62c7.2,12.34,3.04,28.18-9.3,35.38C373.55,390.8,373.44,390.86,373.34,390.92z"/>
			
				<linearGradient id="SVGID_00000090291745009187654500000005750865546559712165_" gradientUnits="userSpaceOnUse" x1="435.25" y1="801.3101" x2="285.43" y2="651.4901" gradientTransform="matrix(1 0 0 1 0 -358)">
				<stop  offset="0" style="stop-color:#9A1F24"/>
				<stop  offset="0.3248" style="stop-color:#C92222"/>
				<stop  offset="1" style="stop-color:#EE2424"/>
			</linearGradient>
			
				<path style="fill:url(#SVGID_00000090291745009187654500000005750865546559712165_);stroke:#000000;stroke-width:5;stroke-linecap:round;stroke-linejoin:round;stroke-miterlimit:10;" d="
				M441.93,368.17c0.06-9.64,5.98-18.28,14.94-21.82l7.14-2.88l-2.32-7.34c-4.57-14.64-12.34-28.08-22.75-39.35l-5.18-5.61
				l-6.05,4.65c-7.58,5.9-17.98,6.62-26.31,1.83c-8.22-4.72-12.75-13.95-11.44-23.34l1.04-7.61l-7.51-1.65
				c-15-3.31-30.54-3.31-45.54,0l-7.39,1.6l0.95,7.52c1.59,13.02-7.67,24.87-20.69,26.46c-6.14,0.75-12.33-0.92-17.25-4.66
				l-6.01-4.61l-5.15,5.57c-10.4,11.29-18.22,24.71-22.91,39.33l-2.36,7.29l7.07,2.97c8.74,3.62,14.4,12.18,14.33,21.63
				c-0.06,9.59-5.91,18.19-14.8,21.79l-7.06,2.89l2.21,7.27c4.49,14.66,12.17,28.13,22.49,39.46l5.16,5.69l6.09-4.69
				c7.58-5.92,18-6.66,26.34-1.86c8.29,4.76,12.81,14.12,11.37,23.57l-1.1,7.65l7.55,1.66c7.67,1.72,15.5,2.6,23.36,2.62
				c7.53,0,15.04-0.81,22.39-2.41l7.53-1.65l-1.1-7.63c-1.79-12.96,7.25-24.91,20.21-26.71c6.38-0.88,12.85,0.87,17.91,4.86
				l6.04,4.77l5.23-5.67c10.45-11.35,18.28-24.85,22.96-39.55l2.37-7.38l-7.18-2.89C447.62,386.39,441.82,377.74,441.93,368.17z
				 M430.67,423.19c-19.91-10.02-44.18-2.01-54.21,17.9c-2.45,4.86-3.89,10.17-4.23,15.61c-8.29,1.14-16.7,1.1-24.97-0.12
				c-0.72-13.45-8.22-25.61-19.9-32.31c-11.66-6.74-25.93-7.18-37.98-1.17c-5.11-6.54-9.24-13.78-12.26-21.51
				c11.23-7.4,18.01-19.92,18.08-33.36c0.09-13.33-6.5-25.82-17.55-33.27c3.14-7.76,7.36-15.03,12.55-21.6
				c20.08,9.78,44.28,1.42,54.05-18.65c2.24-4.59,3.58-9.57,3.97-14.67c8.28-1.18,16.69-1.18,24.97,0
				c1.48,22.09,20.58,38.79,42.67,37.31c5.3-0.36,10.48-1.76,15.23-4.13c2.62,3.32,4.99,6.83,7.11,10.49
				c2.01,3.52,3.78,7.18,5.28,10.95c-11.31,7.37-18.15,19.93-18.21,33.43c-0.12,13.48,6.63,26.11,17.91,33.5
				C440.03,409.34,435.84,416.61,430.67,423.19L430.67,423.19z"/>
		</g>
	</g>
</g>
</svg>
