<?xml version="1.0" encoding="utf-8"?>
<!-- Generator: Adobe Illustrator 27.0.0, SVG Export Plug-In . SVG Version: 6.00 Build 0)  -->
<svg version="1.1" id="Layer_1" xmlns="http://www.w3.org/2000/svg" xmlns:xlink="http://www.w3.org/1999/xlink" x="0px" y="0px"
	 viewBox="0 0 48 48" style="enable-background:new 0 0 48 48;" xml:space="preserve">
<style type="text/css">
	.st0{fill:#616161;}
	.st1{fill:#424242;}
	.st2{fill:#9CCC65;}
	.st3{fill:#33691E;}
	.st4{fill:#FF5252;}
	.st5{fill:#E0E0E0;}
	.st6{fill:#BDBDBD;}
</style>
<path class="st0" d="M48,14.4H0v28.8C0,45.84,2.7,48,6,48h36c3.3,0,6-2.16,6-4.8V14.4z"/>
<path class="st1" d="M42,0H6C2.7,0,0,2.16,0,4.8v10.8h48V4.8C48,2.16,45.3,0,42,0z"/>
<path class="st2" d="M43.35,13.52H4.78c-0.96,0-1.61-0.63-1.61-1.57V4.13c0-0.94,0.64-1.57,1.61-1.57h38.57
	c0.96,0,1.61,0.63,1.61,1.57v7.83C44.96,12.9,44.32,13.52,43.35,13.52z"/>
<g>
	<rect x="38.57" y="9.2" class="st3" width="3" height="2.4"/>
	<rect x="32.57" y="9.2" class="st3" width="3" height="2.4"/>
</g>
<path class="st4" d="M43.35,22.52h-4.84c-0.97,0-1.61-0.5-1.61-1.24V18.8c0-0.74,0.64-1.24,1.61-1.24h4.84
	c0.97,0,1.61,0.5,1.61,1.24v2.48C44.96,22.02,44.32,22.52,43.35,22.52z"/>
<g>
	<path class="st5" d="M9.49,22.52H4.65c-0.97,0-1.61-0.5-1.61-1.24V18.8c0-0.74,0.64-1.24,1.61-1.24h4.84c0.97,0,1.61,0.5,1.61,1.24
		v2.48C11.1,22.02,10.46,22.52,9.49,22.52z"/>
	<path class="st5" d="M20.78,22.52h-4.84c-0.97,0-1.61-0.5-1.61-1.24V18.8c0-0.74,0.64-1.24,1.61-1.24h4.84
		c0.97,0,1.61,0.5,1.61,1.24v2.48C22.39,22.02,21.74,22.52,20.78,22.52z"/>
	<path class="st5" d="M32.06,22.52h-4.84c-0.97,0-1.61-0.5-1.61-1.24V18.8c0-0.74,0.64-1.24,1.61-1.24h4.84
		c0.97,0,1.61,0.5,1.61,1.24v2.48C33.67,22.02,33.03,22.52,32.06,22.52z"/>
	<path class="st5" d="M9.49,29.96H4.65c-0.97,0-1.61-0.5-1.61-1.24v-2.48C3.04,25.5,3.68,25,4.65,25h4.84c0.97,0,1.61,0.5,1.61,1.24
		v2.48C11.1,29.46,10.46,29.96,9.49,29.96z"/>
	<path class="st5" d="M20.78,29.96h-4.84c-0.97,0-1.61-0.5-1.61-1.24v-2.48c0-0.74,0.64-1.24,1.61-1.24h4.84
		c0.97,0,1.61,0.5,1.61,1.24v2.48C22.39,29.46,21.74,29.96,20.78,29.96z"/>
	<path class="st5" d="M32.06,29.96h-4.84c-0.97,0-1.61-0.5-1.61-1.24v-2.48c0-0.74,0.64-1.24,1.61-1.24h4.84
		c0.97,0,1.61,0.5,1.61,1.24v2.48C33.67,29.46,33.03,29.96,32.06,29.96z"/>
	<path class="st5" d="M9.49,37.4H4.65c-0.97,0-1.61-0.5-1.61-1.24v-2.48c0-0.74,0.64-1.24,1.61-1.24h4.84c0.97,0,1.61,0.5,1.61,1.24
		v2.48C11.1,36.9,10.46,37.4,9.49,37.4z"/>
	<path class="st5" d="M20.78,37.4h-4.84c-0.97,0-1.61-0.5-1.61-1.24v-2.48c0-0.74,0.64-1.24,1.61-1.24h4.84
		c0.97,0,1.61,0.5,1.61,1.24v2.48C22.39,36.9,21.74,37.4,20.78,37.4z"/>
	<path class="st5" d="M32.06,37.4h-4.84c-0.97,0-1.61-0.5-1.61-1.24v-2.48c0-0.74,0.64-1.24,1.61-1.24h4.84
		c0.97,0,1.61,0.5,1.61,1.24v2.48C33.67,36.9,33.03,37.4,32.06,37.4z"/>
	<path class="st5" d="M9.49,44.84H4.65c-0.97,0-1.61-0.5-1.61-1.24v-2.48c0-0.74,0.64-1.24,1.61-1.24h4.84
		c0.97,0,1.61,0.5,1.61,1.24v2.48C11.1,44.34,10.46,44.84,9.49,44.84z"/>
	<path class="st5" d="M20.78,44.84h-4.84c-0.97,0-1.61-0.5-1.61-1.24v-2.48c0-0.74,0.64-1.24,1.61-1.24h4.84
		c0.97,0,1.61,0.5,1.61,1.24v2.48C22.39,44.34,21.74,44.84,20.78,44.84z"/>
	<path class="st5" d="M32.06,44.84h-4.84c-0.97,0-1.61-0.5-1.61-1.24v-2.48c0-0.74,0.64-1.24,1.61-1.24h4.84
		c0.97,0,1.61,0.5,1.61,1.24v2.48C33.67,44.34,33.03,44.84,32.06,44.84z"/>
</g>
<g>
	<path class="st6" d="M43.35,29.96h-4.84c-0.97,0-1.61-0.5-1.61-1.24v-2.48c0-0.74,0.64-1.24,1.61-1.24h4.84
		c0.97,0,1.61,0.5,1.61,1.24v2.48C44.96,29.46,44.32,29.96,43.35,29.96z"/>
	<path class="st6" d="M43.35,37.4h-4.84c-0.97,0-1.61-0.5-1.61-1.24v-2.48c0-0.74,0.64-1.24,1.61-1.24h4.84
		c0.97,0,1.61,0.5,1.61,1.24v2.48C44.96,36.9,44.32,37.4,43.35,37.4z"/>
	<path class="st6" d="M43.35,44.84h-4.84c-0.97,0-1.61-0.5-1.61-1.24v-2.48c0-0.74,0.64-1.24,1.61-1.24h4.84
		c0.97,0,1.61,0.5,1.61,1.24v2.48C44.96,44.34,44.32,44.84,43.35,44.84z"/>
</g>
</svg>
